<?xml version="1.0" encoding="iso-8859-1"?>
<!-- Generator: Adobe Illustrator 19.2.0, SVG Export Plug-In . SVG Version: 6.00 Build 0)  -->
<svg version="1.1" id="Boldo_Icon_Set" xmlns="http://www.w3.org/2000/svg" xmlns:xlink="http://www.w3.org/1999/xlink" x="0px"
	 y="0px" viewBox="0 0 61.492 55.87" style="enable-background:new 0 0 61.492 55.87;" xml:space="preserve">
<path style="fill:#fff;" d="M59.799,0H1.69C0.761,0,0,0.76,0,1.695v38.701c0,0.93,0.761,1.685,1.69,1.685h6.94l0.035,13.328
	c0,0.253,0.042,0.383,0.066,0.461c0.077-0.017,0.226-0.059,0.427-0.197l21.206-13.592h29.439c0.924,0,1.682-0.755,1.689-1.685V1.695
	C61.485,0.76,60.727,0,59.799,0z M16.988,16.282c2.533,0,4.587,2.062,4.587,4.591c0,2.527-2.054,4.589-4.587,4.589h-0.006
	c-2.531,0-4.583-2.061-4.583-4.589C12.399,18.344,14.451,16.282,16.988,16.282z M30.774,25.462c-2.528,0-4.589-2.056-4.589-4.589
	c0-2.529,2.061-4.591,4.589-4.591c2.525,0,4.59,2.062,4.59,4.591C35.364,23.406,33.311,25.462,30.774,25.462z M44.531,25.462h-0.004
	c-2.532,0-4.584-2.061-4.584-4.589c0-2.529,2.052-4.591,4.589-4.591c2.535,0,4.591,2.062,4.6,4.591
	C49.122,23.4,47.066,25.462,44.531,25.462z"/>
</svg>
