<?xml version="1.0" encoding="iso-8859-1"?>
<!-- Generator: Adobe Illustrator 19.2.0, SVG Export Plug-In . SVG Version: 6.00 Build 0)  -->
<svg version="1.1" id="Calque_1" xmlns="http://www.w3.org/2000/svg" xmlns:xlink="http://www.w3.org/1999/xlink" x="0px" y="0px"
	 viewBox="94.637 -0.16 210.727 400.161" style="enable-background:new 94.637 -0.16 210.727 400.161;" xml:space="preserve">
<path style="fill:#2e3a41;" d="M192.277,130.462c-0.072,12.937-11.913,26.855-27.259,26.855v219.266c-0.004,31.225-42.445,31.225-42.509,0V157.316
	c-14.894,0-27.899-11.525-27.871-28.684V7.807c-0.028-10.488,15.154-10.892,15.254,0.408v89.289h12.617V7.395
	c0-9.632,14.614-10.256,14.65,0.412v89.697h13.009V7.599c0.096-10.16,14.298-10.564,14.238,0.408v89.497h13.025V7.599
	c-0.048-10.056,14.786-10.464,14.85,0.408v122.454H192.277z"/>
<path style="fill:#2e3a41;" d="M305.363,35.875v340.708c0.056,30.436-42.465,29.984-42.505,0V241.315h-22.581V35.875
	C240.253-11.957,305.419-11.957,305.363,35.875L305.363,35.875z"/>
</svg>
