<?xml version="1.0" encoding="utf-8"?>
<!-- Generator: Adobe Illustrator 19.2.0, SVG Export Plug-In . SVG Version: 6.00 Build 0)  -->
<svg version="1.1" id="Calque_1" xmlns="http://www.w3.org/2000/svg" xmlns:xlink="http://www.w3.org/1999/xlink" x="0px" y="0px"
	 viewBox="0 0 149.5 400" style="enable-background:new 0 0 149.5 400;" xml:space="preserve">
<style type="text/css">
	.st0{fill:#2E3A41;}
</style>
<title>chef_entreprise</title>
<path class="st0" d="M110.8,72H79.2c0.3,0.4,0.4,1,0.3,1.5c0,4.6-4,8.6-4,8.6l8,79l-10.4,11.2L62.7,161l8.1-78.9
	c0,0-4.2-5.2-4.2-8.6c0-0.5,0.2-1,0.5-1.4H37.2C14.1,72,0,90.8,0,114.3v101.4c0,16.2,24.3,16.2,24.3,0v-97h9.2v263.5
	c0,9.9,8.1,17.9,18,17.9c0.1,0,0.2,0,0.3,0c10.2-0.1,18.3-8.4,18.3-18.6V227.8h8.1v153.4c0,10.1,8.2,18.3,18.3,18.3
	c10.1,0,18.3-7.3,18.3-17.4l0.1-263.5h10.6v97c0,16.2,24.3,16.2,24.3,0V114.9C149.5,93.2,136.2,72,110.8,72z"/>
<circle class="st0" cx="73.1" cy="32.6" r="32.6"/>
</svg>
