<?xml version="1.0" encoding="utf-8"?>
<!-- Generator: Adobe Illustrator 16.0.3, SVG Export Plug-In . SVG Version: 6.00 Build 0)  -->
<!DOCTYPE svg PUBLIC "-//W3C//DTD SVG 1.1//EN" "http://www.w3.org/Graphics/SVG/1.1/DTD/svg11.dtd">
<svg version="1.1" id="Capa_1" xmlns="http://www.w3.org/2000/svg" xmlns:xlink="http://www.w3.org/1999/xlink" x="0px" y="0px"
	 width="406.985px" height="406.984px" viewBox="0 0 406.985 406.984" enable-background="new 0 0 406.985 406.984"
	 xml:space="preserve">
<g>
	<path fill="#2E3A41" d="M349.176,0H74.194C56.342,0,41.823,14.523,41.823,32.375V57.99c-9.166,0.884-16.382,8.544-16.382,17.939
		c0,9.398,7.216,17.05,16.382,17.938v20.581c-9.166,0.892-16.382,8.544-16.382,17.941c0,9.396,7.216,17.051,16.382,17.938v21.93
		c-9.166,0.886-16.382,8.542-16.382,17.937c0,9.398,7.216,17.052,16.382,17.94v20.586c-9.166,0.885-16.382,8.541-16.382,17.937
		c0,9.401,7.216,17.052,16.382,17.948v20.301c-9.166,0.893-16.382,8.549-16.382,17.942c0,9.396,7.216,17.052,16.382,17.938v53.826
		c0,17.854,14.526,32.372,32.371,32.372h274.982c17.85,0,32.367-14.521,32.367-32.372V32.37C381.543,14.523,367.026,0,349.176,0z
		 M41.818,311.532c-4.062-0.809-7.132-4.399-7.132-8.694c0-4.296,3.07-7.886,7.132-8.689V311.532z M41.818,255.345
		c-4.062-0.81-7.132-4.399-7.132-8.688c0-4.297,3.07-7.88,7.132-8.689V255.345z M41.818,198.882
		c-4.062-0.81-7.132-4.396-7.132-8.689c0-4.298,3.07-7.885,7.132-8.688V198.882z M41.818,141.074
		c-4.062-0.809-7.132-4.393-7.132-8.686c0-4.298,3.07-7.885,7.132-8.691V141.074z M41.818,84.616
		c-4.062-0.813-7.132-4.395-7.132-8.692s3.07-7.882,7.132-8.689V84.616z M363.047,374.613c0,7.645-6.229,13.871-13.871,13.871
		H74.194c-7.648,0-13.873-6.228-13.873-13.871v-53.657h13.71c1.598,6.178,7.155,10.758,13.841,10.758
		c7.921,0,14.343-6.419,14.343-14.335c0-7.925-6.422-14.35-14.343-14.35c-5.907,0-10.971,3.572-13.167,8.673H60.322v-46.935h13.71
		c1.598,6.186,7.155,10.766,13.841,10.766c7.921,0,14.343-6.419,14.343-14.344c0-7.923-6.422-14.348-14.343-14.348
		c-5.907,0-10.971,3.568-13.167,8.667H60.322v-47.2h14.131c2.011,5.483,7.24,9.422,13.42,9.422c7.921,0,14.343-6.421,14.343-14.347
		c0-7.924-6.422-14.344-14.343-14.344c-6.404,0-11.767,4.223-13.611,10.018h-13.94v-48.559h13.772
		c1.664,6.081,7.171,10.575,13.779,10.575c7.921,0,14.343-6.423,14.343-14.346s-6.422-14.344-14.343-14.344
		c-5.981,0-11.094,3.663-13.247,8.864H60.322V94.034h13.373c0.824,7.135,6.821,12.697,14.178,12.697
		c7.921,0,14.343-6.421,14.343-14.345c0-7.923-6.422-14.344-14.343-14.344c-5.122,0-9.584,2.7-12.12,6.741H60.322V32.37
		c0-7.647,6.224-13.875,13.873-13.875h274.981c7.645,0,13.873,6.228,13.873,13.875v342.242H363.047z M328.077,83.249
		c0,3.833-3.104,6.936-6.938,6.936H139.233c-3.833,0-6.938-3.103-6.938-6.936s3.105-6.938,6.938-6.938h181.904
		C324.971,76.304,328.077,79.41,328.077,83.249z M305.725,139.517c0,3.833-3.104,6.937-6.938,6.937H161.584
		c-3.833,0-6.937-3.104-6.937-6.937s3.104-6.938,6.937-6.938h137.204C302.622,132.573,305.725,135.678,305.725,139.517z
		 M305.725,196.554c0,3.83-3.104,6.937-6.938,6.937H161.584c-3.833,0-6.937-3.106-6.937-6.937c0-3.833,3.104-6.938,6.937-6.938
		h137.204C302.622,189.616,305.725,192.721,305.725,196.554z M305.725,252.051c0,3.835-3.104,6.938-6.938,6.938H161.584
		c-3.833,0-6.937-3.104-6.937-6.938c0-3.831,3.104-6.934,6.937-6.934h137.204C302.622,245.113,305.725,248.215,305.725,252.051z
		 M305.725,311.018c0,3.829-3.104,6.938-6.938,6.938H161.584c-3.833,0-6.937-3.109-6.937-6.938c0-3.832,3.104-6.938,6.937-6.938
		h137.204C302.622,304.08,305.725,307.186,305.725,311.018z"/>
</g>
</svg>
