<?xml version="1.0" encoding="utf-8"?>
<!-- Generator: Adobe Illustrator 16.0.3, SVG Export Plug-In . SVG Version: 6.00 Build 0)  -->
<!DOCTYPE svg PUBLIC "-//W3C//DTD SVG 1.1//EN" "http://www.w3.org/Graphics/SVG/1.1/DTD/svg11.dtd">
<svg version="1.1" xmlns="http://www.w3.org/2000/svg" xmlns:xlink="http://www.w3.org/1999/xlink" x="0px" y="0px"
	 width="331.451px" height="331.451px" viewBox="0 0 331.451 331.451" enable-background="new 0 0 331.451 331.451"
	 xml:space="preserve">
<g id="Capa_1">
	<g>
		<path fill="#2E3A41" stroke="#2E3A41" stroke-miterlimit="10" d="M321.36,62.646c-3.317,0-5.813,1.604-8.706,3.465
			c-4.288,2.761-10.97,7.053-22.751,8.442c-0.754-9.088-3.713-23.14-14.049-34.49c-10.668-11.718-26.318-17.664-46.526-17.664
			c-36.117,0-60.562,9.089-72.654,27.006c-11.75,17.405-11.22,42.298,1.698,74.326c2.386,5.236,4.717,14.525,3.087,17.767
			c-0.124,0.253-0.274,0.545-1.112,0.732c-8.09,1.49-79.645,15.33-101.58,40.782c-1.767,2.046-3.385,3.085-4.812,3.085
			c-7.045,0-19.525-17.955-26.32-34.077c-1.237-2.937-4.092-4.875-7.283-4.951c-3.153,0.042-6.125,1.729-7.501,4.611
			c-1.004,2.106-24.321,52.02-5.595,98.399c10.687,26.479,32.746,46.148,65.567,58.456c0.907,0.338,1.875,0.519,2.84,0.519h169.816
			c1.614,0,3.187-0.48,4.525-1.383c1.523-1.023,37.462-25.666,42.493-67.474c3.285-27.322-7.356-55.081-31.646-82.545
			c-0.026-3.444,0.56-9.904,5.01-12.711c23.715-1.517,65.586-14.17,65.586-52.724V87.71c0.021-14.805,0.032-18.784-3.538-22.359
			C326.164,63.605,323.839,62.646,321.36,62.646z"/>
	</g>
</g>
<g id="Calque_2">
	<circle fill="#FFFFFF" stroke="#FFFFFF" stroke-width="6" stroke-miterlimit="10" cx="228.226" cy="76.226" r="11"/>
</g>
</svg>
