<?xml version="1.0" encoding="iso-8859-1"?>
<!-- Generator: Adobe Illustrator 19.2.0, SVG Export Plug-In . SVG Version: 6.00 Build 0)  -->
<svg version="1.1" id="Calque_1" xmlns="http://www.w3.org/2000/svg" xmlns:xlink="http://www.w3.org/1999/xlink" x="0px" y="0px"
	 viewBox="0 96.716 800.128 606.568" style="enable-background:new 0 96.716 800.128 606.568;" xml:space="preserve">
<path style="fill:#fff;" d="M361.696,525.236c-4.432-4.432-6.92-10.44-6.92-16.712c0-13.048,10.584-23.632,23.632-23.632
	c6.272,0,12.28,2.496,16.712,6.928l0,0l77.176,77.168h9.464V282.18c0-13.048,10.584-23.648,23.632-23.648s23.64,10.6,23.64,23.648
	l0,0v205.768h9.448v-99.2c0-13.048,10.592-23.632,23.64-23.632s23.632,10.584,23.632,23.632l0,0v114.4h9.464V390.492
	c4.088-3.072,9.064-4.736,14.168-4.736c13.048,0,23.648,10.584,23.648,23.632l0,0V518.34h9.448v-83.576
	c4.088-3.072,9.072-4.72,14.184-4.72c13.04,0,23.64,10.584,23.64,23.624l0,0l-0.152,150.568
	c-0.12,54.736-44.528,99.048-99.28,99.048c-26.328,0-51.568-10.464-70.184-29.072l0,0L361.696,525.236z M758.248,96.716H41.888
	C18.768,96.716,0,115.484,0,138.604l0,0v460.784c0,23.136,18.768,41.896,41.888,41.896l0,0H444.32l-62.84-62.832H62.832V159.548
	h674.472v418.896H703.8l-0.024,25.584c0,12.632-1.952,25.208-5.792,37.248l0,0h60.256c23.128,0,41.888-18.768,41.888-41.896l0,0
	V138.604C800.144,115.484,781.376,96.716,758.248,96.716L758.248,96.716z M552.672,282.18v52.84
	c15.032-13.448,23.632-32.672,23.632-52.84c0-39.144-31.768-70.912-70.904-70.912s-70.912,31.768-70.912,70.912
	c0,20.168,8.608,39.392,23.64,52.84l0,0v-52.84c0-26.096,21.176-47.28,47.272-47.28C531.496,234.9,552.672,256.084,552.672,282.18
	L552.672,282.18z"/>
</svg>
