<?xml version="1.0" encoding="iso-8859-1"?>
<!-- Generator: Adobe Illustrator 19.2.0, SVG Export Plug-In . SVG Version: 6.00 Build 0)  -->
<svg version="1.1" id="Calque_1" xmlns="http://www.w3.org/2000/svg" xmlns:xlink="http://www.w3.org/1999/xlink" x="0px" y="0px"
	 viewBox="-124.399 238.305 443.386 596.322" style="enable-background:new -124.399 238.305 443.386 596.322;"
	 xml:space="preserve">
<path style="fill:#fff;" d="M-38.084,592.497c20.239,0,36.907-16.668,36.907-36.907c0-20.24-16.668-36.907-36.907-36.907s-36.907,16.668-36.907,36.907
	C-74.991,575.829-58.323,592.497-38.084,592.497z M315.513,555.589l-61.314-170.845c-12.501-36.907-134.533-36.907-146.439,0
	L46.446,555.589c-12.501,24.406,12.501,36.907,24.407,12.501l61.314-134.533c-24.407,73.219-36.907,122.032-24.407,378.598
	c0,24.406,36.907,24.406,36.907,0l36.907-207.753v207.753c0,24.406,36.907,24.406,36.907,0
	c48.813-256.565,36.907-305.379,12.501-378.598l61.314,134.533C303.607,592.497,328.014,579.996,315.513,555.589z M47.041,555.589
	l-36.907,36.907c-12.501,12.501-85.72,12.501-97.626,36.907l-36.907,73.219l24.407,12.501l24.407-48.813
	c0,61.314-12.501,85.72-24.407,158.94c0,12.501,36.907,12.501,36.907,0l24.407-85.72h12.501v85.72c0,12.501,36.907,12.501,36.907,0
	c0-73.219,0-122.032,0-170.845l48.813-73.219L47.041,555.589z M181.575,238.305c-27.383,0-48.813,21.43-48.813,48.813
	c0,27.383,21.43,48.813,48.813,48.813s48.813-21.43,48.813-48.813C230.388,259.735,208.958,238.305,181.575,238.305z"/>
</svg>
