<?xml version="1.0" encoding="utf-8"?>
<!-- Generator: Adobe Illustrator 19.2.0, SVG Export Plug-In . SVG Version: 6.00 Build 0)  -->
<svg version="1.1" id="Calque_1" xmlns="http://www.w3.org/2000/svg" xmlns:xlink="http://www.w3.org/1999/xlink" x="0px" y="0px"
	 viewBox="0 0 360.1 359.3" style="enable-background:new 0 0 360.1 359.3;" xml:space="preserve">
<style type="text/css">
	.st0{fill:#2E3A41;}
</style>
<title>enseignant</title>
<path class="st0" d="M359.7,112.7c-0.4-14.7-6.4-26.9-22.1-34c-6.2-2.9-13-4.3-19.9-4.3c-5.8,0.1-11.6,0.1-17.5-0.1
	c-3-0.1-4.7,1.4-6.1,3.9c-3.2,5.9-6.5,11.8-9.8,17.7c-0.5,0.8-1,1.5-1.6,2.2c-0.9,1-1.5,1-2.3-0.5c-3.7-6.8-7.7-13.3-11.3-20.1
	c-1.1-2.2-2.3-3.1-4.5-3.1c-8.4,0.1-16.9-0.9-25,0.6c-17,3-32.6,12.9-35.3,37c-0.3,3-1,3.5-3.3,1.8c-5.2-3.7-10.4-7.4-15.4-11.4
	c-4.6-3.7-9.5-3.6-14.4-1.8c-2,0.7-3.2,0.8-4.8-0.4s-3.6-2.3-5.3-3.5c-11.8-8.7-23.5-17.3-35.2-26c-8.8-6.5-17.6-13-26.4-19.5
	c-2.6-1.9-3.6-1.9-5.3,0.4s-1.4,3.4,1.2,5.5c2.8,2.3,5.7,4.5,8.6,6.6c13.4,9.8,26.7,19.5,40.1,29.3c5.4,3.9,10.8,7.9,16.2,11.7
	c2.3,1.6,3.5,3.3,2.8,6.7c-1.4,7,1.2,12.5,6.8,16.4c13.1,9.4,26.2,18.9,39.2,28.4c5.9,4.3,15.3,3.9,19.3-1c2.5-3.1,3.9-7,3.7-11
	c0-6.9-0.1-13.9,0.1-20.8c0-1.4,0.7-3.8,1.5-4c2-0.4,4.1-0.3,6.1,0.1c0.4,0.1,0.8,1.6,0.9,2.4c0.1,1.9,0.1,3.9,0.1,5.8
	c0,78.8,0,126.9,0,205.6c0,4.9-0.4,9.9,1.9,14.6c4,8.3,10.6,11.5,18.7,10.7c7.3-0.7,12.5-5,15.5-12.6c1.2-3.3,1.7-6.8,1.5-10.3
	c0-50.3,0-69.8,0-120.1c0-1.4,0-2.9,0-4.3c0-2.3,0.4-4.1,3.1-4.1c3.1,0.1,4,0.8,4.2,4.2c0.1,1.1,0,2.3,0,3.4c0,50.7,0,70.8,0,121.6
	c0,7.8,1.9,14.7,8.3,19.1c10.3,7.1,24,3.4,28.7-10.5c1-2.9,0.6-6.4,0.6-9.6c0-30.1,0-23.4,0-53.6c0-9.3,0-24.8,0-34.2V125.1
	c0-0.6,0-1.3,0-1.9c-0.3-2.9,0.8-4.1,3.5-4c3.5,0.1,4.1,0.4,4.3,3.9c0.1,2.7,0,5.5,0,8.2c0,21.9,0,43.8,0,65.7
	c-0.1,4.2,1.1,8.2,3.5,11.6c5.9,8.3,18,6.8,22.4-1.4c1.7-3.1,2.6-6.5,2.6-10C360,169.1,360.4,140.9,359.7,112.7z M206.4,165.1
	c-2.2-1.6-4.4-3.3-6.6-4.8c-2-1.4-2.9-1.1-3.2,1.5c-0.2,2.6-0.3,5.1-0.2,7.7c0.1,2.6-0.9,4-3.4,3.8c-1.2-0.1-2.4,0-3.6,0H21.9
	c-0.9,0-1.8-0.1-2.7,0c-2.3,0.1-3.2-1.2-3.2-3.5c0-2.3,0-4.5,0-6.8c0-39.8,0-79.6,0-119.4c0-0.8,0-1.6,0-2.4c0-6.3,0-6.3,5.7-6.3
	h168.8c0.6,0,1.2,0,1.8,0c3.7,0.2,4,0.5,4,4.6c0.1,11.6,0,23.2,0,34.8c0,4.8-0.1,9.7,0.1,14.5c0,1.6,0.3,3.1,1,4.6
	c0.7,1.1,1.9,1.9,3.2,2.1c0.6,0.1,1.4-1.7,2-2.6c2.4-3.8,4.8-7.7,7.4-11.4c1.6-2.1,2.4-4.8,2.4-7.4c-0.1-15.1-0.1-30.3-0.1-45.4
	c0-7.5-3.1-10.8-10.1-10.8c-32.1,0-64.2,0-96.3,0c-31.8,0-63.6,0.1-95.4-0.1c-4.8,0-8.1,1.7-9.6,6.7c-0.5,1.5-0.7,3.1-0.7,4.7
	C0,79,0,129,0,178.9c0,7.3,4.7,11.7,10.7,11.7c63-0.2,126-0.1,189-0.1c2.6,0,5.3-0.5,7.7-1.5c1.8-0.8,3.2-2.4,3.8-4.2
	c0.8-3.7,0.7-7.6,1-11.4C212.5,168.7,209.2,167.1,206.4,165.1z M282.5,68.5c16.4,0,32-14.8,31.1-34.6C313.6,12.8,299.2,0.2,282,0
	c-15.4-0.2-31,11.9-31.3,34.5C250.4,53.9,265.6,68.6,282.5,68.5z"/>
</svg>
