<?xml version="1.0" encoding="utf-8"?>
<!-- Generator: Adobe Illustrator 19.2.0, SVG Export Plug-In . SVG Version: 6.00 Build 0)  -->
<svg version="1.1" id="Calque_1" xmlns="http://www.w3.org/2000/svg" xmlns:xlink="http://www.w3.org/1999/xlink" x="0px" y="0px"
	 viewBox="0 0 392.8 400" style="enable-background:new 0 0 392.8 400;" xml:space="preserve">
<style type="text/css">
	.st0{fill:#2E3A41;}
</style>
<title>futur_habitant</title>
<path class="st0" d="M65.5,299.7L17,345.2C1.7,359.5-4.4,377.9,3.4,386.1s26.4,3.3,41.7-11l32.5-30.4L65.5,299.7z"/>
<circle class="st0" cx="213.4" cy="365.3" r="34.7"/>
<path class="st0" d="M275.5,361.9l-92.7-191.2c8.3-7.7,8.9-20.6,1.2-29c-3.9-4.2-9.4-6.6-15.1-6.6h-23.7L94.3,84.3
	C89.1,75,77.5,68.6,63.9,68.6c-18.4,0-33.3,11.9-33.3,26.5v135.1h23.7L84.2,342h0.2L95,381.5c3.2,10.9,14.6,17.2,25.5,14
	c10.6-3.1,16.9-13.9,14.2-24.6l-10.6-39.6L97,230.2h0.3v-84.6l30.6,30.6h41c0.2,0,0.4,0,0.6,0l93.1,192l0,0l6.3,12.8l109.6-53.2
	l-6.2-12.8L275.5,361.9z"/>
<polygon class="st0" points="332.1,322.9 291.7,239.6 284.4,243.2 270.9,215.4 225.1,237.6 279,348.6 "/>
<polygon class="st0" points="296.9,237.1 337.3,320.3 392.8,293.4 338.9,182.4 293.2,204.6 306.7,232.3 "/>
<path class="st0" d="M148.9,22.1h-30.2C112.5,4.7,93.4-4.3,76,1.9S49.6,27.2,55.8,44.5s25.3,26.4,42.6,20.2
	c9.4-3.4,16.8-10.8,20.2-20.2C136.2,41.4,148.9,32.5,148.9,22.1z"/>
</svg>
