<?xml version="1.0" encoding="utf-8"?>
<!-- Generator: Adobe Illustrator 16.0.3, SVG Export Plug-In . SVG Version: 6.00 Build 0)  -->
<!DOCTYPE svg PUBLIC "-//W3C//DTD SVG 1.1//EN" "http://www.w3.org/Graphics/SVG/1.1/DTD/svg11.dtd">
<svg version="1.1" id="Calque_1" xmlns="http://www.w3.org/2000/svg" xmlns:xlink="http://www.w3.org/1999/xlink" x="0px" y="0px"
	 width="617.95px" height="340.158px" viewBox="0 138.896 617.95 340.158" enable-background="new 0 138.896 617.95 340.158"
	 xml:space="preserve">
<title>associations_specifiques</title>
<g>
	<path fill="#2E3A41" d="M0.672,437.938v15.449c-0.378,10.752,8.032,19.773,18.783,20.15c0.456,0.016,0.912,0.016,1.367,0h576.977
		c10.752,0.377,19.773-8.031,20.15-18.783c0.016-0.455,0.016-0.912,0-1.367v-15.449H0.672z"/>
	<path fill="#2E3A41" d="M99.409,251.882c-2.015-23.509-18.135-42.316-36.271-41.645c-18.135,0.672-32.241,20.822-30.226,44.331
		c2.015,23.509,18.135,42.316,36.271,41.645C87.319,295.542,100.753,275.391,99.409,251.882z M204.192,229.044
		c-1.344-21.494-17.464-38.286-34.928-36.942c-17.464,1.343-30.897,18.807-28.882,40.301c2.015,21.494,17.464,38.286,34.927,36.943
		C192.773,268.002,206.208,250.539,204.192,229.044z M453.387,192.102c-17.463-0.672-33.584,16.12-34.928,36.942
		s11.418,38.958,28.883,40.301c17.463,1.343,33.584-16.121,34.928-36.943S470.852,192.773,453.387,192.102z M559.514,210.237
		c-18.809-0.671-35.6,17.464-37.615,41.645s12.09,44.331,30.898,45.003c18.807,0.672,35.6-17.464,37.613-41.645
		C592.426,231.06,578.321,210.909,559.514,210.237z M112.843,374.128l2.687-1.343c-1.474-19.224-4.393-38.309-8.732-57.094
		c-3.358-10.075-24.181-17.464-26.867-12.762c-2.687,4.702,5.374,18.135,0,19.479S63.81,303.602,53.063,302.93
		c-10.747-0.671-20.822,10.747-26.867,26.196c-6.045,15.449-6.045,52.392-3.358,77.244L112.843,374.128z M161.876,360.023h58.437
		c0.401-24.687-2.536-49.313-8.732-73.213c-3.358-8.732-23.509-15.449-26.195-11.419c-2.687,4.03,4.702,16.121,0,17.464
		c-4.702,1.344-15.449-16.792-26.196-17.464c-10.747-0.671-20.151,9.404-26.196,23.509c-6.045,14.105-5.374,45.675-3.358,67.841
		C140.208,363.733,150.982,361.488,161.876,360.023L161.876,360.023z M454.731,360.023c12.607,1.843,24.988,4.994,36.943,9.403
		c2.686-22.837,1.342-59.779-3.359-70.526s-15.449-24.181-26.195-23.509c-10.748,0.672-20.822,19.479-26.195,17.464
		c-5.375-2.015,2.686-13.434,0-17.464c-2.688-4.03-22.838,2.687-26.197,11.419c-5.861,23.961-8.793,48.546-8.73,73.214
		L454.731,360.023L454.731,360.023z M600.487,409.056c2.686-25.524,1.344-67.169-3.359-79.259
		c-4.701-12.09-16.119-27.539-27.539-26.868c-11.418,0.672-22.166,21.495-27.539,20.151s2.688-14.777,0-20.151
		c-2.686-5.373-24.18,2.687-27.539,12.762c-4.646,19.18-7.568,38.736-8.73,58.437L600.487,409.056z M601.831,421.147l-98.066-34.928
		c-15.705-6.694-32.172-11.432-49.033-14.105H161.876c-16.918,2.41-33.42,7.158-49.033,14.105l-98.066,34.928
		c-10.747,6.045-32.241,26.195,14.105,28.211h558.843C636.086,449.358,613.249,427.864,601.831,421.147L601.831,421.147z"/>
	<path id="couleur" fill="#2E3A41" d="M312.334,144.412c-23.48,0.367-42.32,19.506-42.317,42.988
		c-1.161,23.259,16.41,43.213,39.629,45.003c23.479-0.367,42.318-19.506,42.316-42.988c1.527-23.32-16.139-43.464-39.459-44.992
		C312.448,144.419,312.391,144.416,312.334,144.412z M386.891,360.023c0.279-28.935-1.066-57.863-4.031-86.647
		c-3.357-23.509-40.301-31.569-66.496-32.241l0,0c-26.196-0.671-72.542,6.045-76.572,32.241
		c-3.186,29.221-4.755,58.596-4.702,87.991h151.801V360.023z"/>
</g>
</svg>
