<?xml version="1.0" encoding="iso-8859-1"?>
<!-- Generator: Adobe Illustrator 19.2.0, SVG Export Plug-In . SVG Version: 6.00 Build 0)  -->
<svg version="1.1" id="Calque_1" xmlns="http://www.w3.org/2000/svg" xmlns:xlink="http://www.w3.org/1999/xlink" x="0px" y="0px"
	 viewBox="29.764 239.45 526.007 341.506" style="enable-background:new 29.764 239.45 526.007 341.506;" xml:space="preserve">
<g>
	<path style="fill:#fff;" d="M196.829,287.156L57.831,418.361v162.595h93.876v-104.87c0-24.907,20.204-45.104,45.122-45.104
		s45.116,20.204,45.116,45.104v104.87h93.882V418.361L196.829,287.156z"/>
	<polygon style="fill:#fff;" points="257.238,284.173 365.96,386.806 555.771,386.806 444.43,284.173 	"/>
	<g>
		<polygon style="fill:#fff;" points="555.771,395.253 555.771,415.23 373.33,415.23 363.883,415.23 347.209,415.23 346.983,415.23 346.983,415.028 
			196.829,273.268 29.764,430.981 29.764,397.146 196.829,239.45 361.877,395.253 		"/>
	</g>
	<path style="fill:#fff;" d="M346.983,423.094V560.08h193.871V423.094H346.983z M504.071,522.512H385.777V456.9h118.294V522.512z"/>
</g>
</svg>
