<?xml version="1.0" encoding="iso-8859-1"?>
<!-- Generator: Adobe Illustrator 19.2.0, SVG Export Plug-In . SVG Version: 6.00 Build 0)  -->
<svg version="1.1" id="Calque_1" xmlns="http://www.w3.org/2000/svg" xmlns:xlink="http://www.w3.org/1999/xlink" x="0px" y="0px"
	 viewBox="29.764 197.715 535.194 446.46" style="enable-background:new 29.764 197.715 535.194 446.46;" xml:space="preserve">
<path style="fill:#2e3a41;" d="M44.646,525.119h238.112l0,0c8.334,0,14.882-6.548,14.882-14.882c0-1.786-0.595-3.572-1.191-5.358l-13.096-53.575
	l13.691-40.479c1.786-5.358,0.595-11.31-3.572-15.477l-21.43-21.43l23.216-34.526c2.976-4.762,3.572-10.715,0.595-15.477
	c-2.976-4.762-7.739-7.739-13.096-7.739H44.646c-8.334,0.595-14.882,7.143-14.882,15.477v178.584
	C29.764,518.571,36.312,525.119,44.646,525.119z M59.528,346.535H254.78l-14.287,21.43c-4.167,5.953-2.976,13.691,1.786,19.049
	l23.216,23.216l-11.906,35.717c-1.191,2.976-1.191,5.358-0.595,8.334l10.12,41.074H59.528V346.535z"/>
<path style="fill:#2e3a41;" d="M550.634,316.771H342.286c-4.762,0-9.524,2.381-12.501,6.548l-29.764,44.646c-4.167,5.953-2.976,13.691,1.786,19.049
	l23.216,23.216l-11.906,35.717c-1.191,2.976-1.191,5.358-0.595,8.334l14.882,59.528c1.786,6.548,7.739,11.31,14.287,11.31h208.348
	c8.334,0,14.882-6.548,14.882-14.882V331.653C565.516,323.319,558.968,316.771,550.634,316.771z M535.752,495.355h-181.56
	l-11.31-44.051l13.691-40.479c1.786-5.358,0.595-11.31-3.572-15.477l-21.43-21.43l18.454-27.978h185.727V495.355z"/>
<path style="fill:#2e3a41;" d="M312.522,287.007c8.334,0,14.882-6.548,14.882-14.882v-59.528c0-8.334-6.548-14.882-14.882-14.882
	c-8.334,0-14.882,6.548-14.882,14.882v59.528C297.64,280.459,304.188,287.007,312.522,287.007z"/>
<path style="fill:#2e3a41;" d="M312.522,644.175c8.334,0,14.882-6.548,14.882-14.882v-59.528c0-8.334-6.548-14.882-14.882-14.882
	c-8.334,0-14.882,6.548-14.882,14.882v59.528C297.64,637.627,304.188,644.175,312.522,644.175z"/>
<path style="fill:#2e3a41;" d="M259.542,281.054c1.786,6.548,7.739,11.31,14.287,11.31c1.191,0,2.381,0,3.572-0.595
	c7.739-2.381,12.501-10.12,10.715-18.454l-15.477-57.742c-2.381-7.739-10.12-12.501-18.454-10.715
	c-7.739,2.381-12.501,10.12-10.715,18.454L259.542,281.054z"/>
<path style="fill:#2e3a41;" d="M366.692,637.032c1.191,0,2.381,0,3.572-0.595c7.739-2.381,12.501-10.12,10.715-18.454l-15.477-57.742
	c-2.381-7.739-10.12-12.501-18.454-10.715c-7.739,2.381-12.501,10.12-10.715,18.454l15.477,57.742
	C353.596,632.865,360.144,637.032,366.692,637.032z"/>
<path style="fill:#2e3a41;" d="M347.048,291.769c1.191,0.595,2.381,0.595,3.572,0.595c6.548,0,12.501-4.167,14.287-11.31l15.477-57.742
	c2.381-7.739-2.381-16.073-10.715-18.454c-7.739-2.381-16.073,2.381-18.454,10.715l-15.477,57.742
	C334.547,281.054,339.31,289.388,347.048,291.769z"/>
<path style="fill:#2e3a41;" d="M259.542,560.836l-15.477,57.742c-2.381,7.739,2.381,16.073,10.715,18.454c1.191,0.595,2.381,0.595,3.572,0.595
	c6.548,0,12.501-4.167,14.287-11.31l15.477-57.742c2.381-7.739-2.381-16.073-10.715-18.454
	C269.662,548.335,261.923,553.097,259.542,560.836z"/>
</svg>
