<?xml version="1.0" encoding="utf-8"?>
<!-- Generator: Adobe Illustrator 19.2.0, SVG Export Plug-In . SVG Version: 6.00 Build 0)  -->
<svg version="1.1" id="Calque_1" xmlns="http://www.w3.org/2000/svg" xmlns:xlink="http://www.w3.org/1999/xlink" x="0px" y="0px"
	 viewBox="0 0 198.4 375.3" style="enable-background:new 0 0 198.4 375.3;" xml:space="preserve">
<style type="text/css">
	.st0{fill:#2E3A41;}
</style>
<title>Objet dynamique vectoriel</title>
<path class="st0" d="M183.4,263.5c0.9,0,1.7-0.1,2.6-0.2c8.2-1.4,13.6-9.2,12.2-17.3c-2.5-14.6-16.4-88.3-41.5-108
	c-11.6-9-33.3-13.1-55.3-13.1c-23,0-46.3,4.5-58.5,12.3c-27.1,17.6-39.5,88-42.7,109.1c-1.2,8.2,4.4,15.8,12.6,17.1
	c0.7,0.1,1.5,0.2,2.2,0.2c7.4,0,13.7-5.4,14.8-12.8c3.6-24.3,10.5-51.6,17.8-69.6c-0.6,3.1-0.9,6.2-1,9.4v44c0,0.1,0.1,0.3,0.1,0.4
	c0,43.9,1.3,84.3,3.8,123.4c0.6,9.5,8.5,16.8,17.9,16.8c0.4,0,0.8,0,1.2,0c9.9-0.6,17.4-9.2,16.8-19.1c-2.1-32.2-3.3-65.4-3.6-100.7
	c5.4,0.7,10.8,1,16.2,1c5.3,0,10.7-0.3,16-0.9c-0.4,35.5-1.5,68.8-3.6,100.9c-0.7,9.9,6.9,18.5,16.8,19.1c0.4,0,0.8,0,1.2,0
	c9.5,0,17.4-7.4,18-16.9c2.5-38.7,3.8-78.9,3.8-122.5c0.2-0.5,0.3-1,0.4-1.5v-44c-0.1-1.9-0.3-3.9-0.6-5.8
	c7,18.3,13.6,43.8,17.5,66.3C169.9,258.2,176.1,263.5,183.4,263.5z"/>
<circle class="st0" cx="99.2" cy="57" r="57"/>
</svg>
