<?xml version="1.0" encoding="iso-8859-1"?>
<!-- Generator: Adobe Illustrator 19.2.0, SVG Export Plug-In . SVG Version: 6.00 Build 0)  -->
<svg version="1.1" id="Calque_1" xmlns="http://www.w3.org/2000/svg" xmlns:xlink="http://www.w3.org/1999/xlink" x="0px" y="0px"
	 viewBox="48.244 8 291.756 382.496" style="enable-background:new 48.244 8 291.756 382.496;" xml:space="preserve">
<g>
	<path style="fill:#2e3a41;" d="M340,390.496H48.244V54.404L259.016,8v41.32H340V390.496z M69.676,369.064h248.896V70.752h-80.988V34.668L69.672,71.628
		v297.436H69.676z"/>
	<polygon style="fill:#2e3a41;" points="60.72,390.348 57.204,369.208 237.584,339.14 237.584,60.036 259.016,60.036 259.016,357.3 	"/>
	<rect style="fill:#2e3a41;" x="248.304" y="101.72" width="51.212" height="14.296"/>
	<rect style="fill:#2e3a41;" x="248.304" y="130.3" width="51.212" height="14.288"/>
	<rect style="fill:#2e3a41;" x="248.304" y="160.668" width="51.212" height="14.288"/>
	<rect style="fill:#2e3a41;" x="248.304" y="191.436" width="51.212" height="14.292"/>
	<rect style="fill:#2e3a41;" x="248.304" y="223.168" width="51.212" height="14.288"/>
	<rect style="fill:#2e3a41;" x="248.304" y="251.752" width="51.212" height="14.288"/>
	<rect style="fill:#2e3a41;" x="248.304" y="282.116" width="51.212" height="14.288"/>
	<rect style="fill:#2e3a41;" x="248.304" y="312.884" width="51.212" height="14.284"/>
	<polygon style="fill:#2e3a41;" points="96.264,135.852 96.288,121.828 198.108,101.852 198.144,116.012 	"/>
</g>
</svg>
