<?xml version="1.0" encoding="utf-8"?>
<!-- Generator: Adobe Illustrator 19.2.0, SVG Export Plug-In . SVG Version: 6.00 Build 0)  -->
<svg version="1.1" id="Calque_1" xmlns="http://www.w3.org/2000/svg" xmlns:xlink="http://www.w3.org/1999/xlink" x="0px" y="0px"
	 viewBox="0 0 360 292" style="enable-background:new 0 0 360 292;" xml:space="preserve">
<style type="text/css">
	.st0{fill:#2E3A41;}
</style>
<title>nouvel_arrivant</title>
<path class="st0" d="M319.3,31.4h-89.7C228.4,13.8,213.9,0.1,196.3,0h-32.6c-17.6,0.1-32.2,13.8-33.3,31.4H40.7
	C18.2,31.4,0,49.7,0,72.3v178.8c0,22.5,18.2,40.8,40.7,40.9h278.5c22.5-0.1,40.8-18.4,40.7-40.9V72.3
	C360,49.7,341.8,31.4,319.3,31.4z M163.7,12.4h32.6c10.8,0,19.9,8.2,20.9,19h-74.5C143.9,20.6,152.9,12.4,163.7,12.4L163.7,12.4z
	 M355.9,251.1c0,20.3-16.4,36.7-36.6,36.8H40.7c-20.3-0.1-36.6-16.5-36.6-36.8V72.3c0-20.3,16.4-36.7,36.6-36.8h278.5
	c20.3,0.1,36.7,16.5,36.6,36.8L355.9,251.1L355.9,251.1L355.9,251.1z"/>
<path class="st0" d="M317.3,45.6h-46.6c0.4,0.6,0.6,1.4,0.6,2.1v14c5.7,1.7,9.5,6.9,9.5,12.8v41.3h-26.6V74.5
	c0-5.9,3.9-11.1,9.5-12.8v-14c0-0.7,0.2-1.5,0.6-2.1H42.7c-17.1,0-31,13.9-31,31c0,0,0,0,0,0.1v171c0,17.1,13.8,31,30.9,31.1
	c0,0,0,0,0,0h274.7c17.1,0,31-13.9,31-31c0,0,0,0,0,0v-171C348.3,59.5,334.5,45.6,317.3,45.6C317.3,45.6,317.3,45.6,317.3,45.6z"/>
</svg>
