<?xml version="1.0" encoding="iso-8859-1"?>
<!-- Generator: Adobe Illustrator 19.2.0, SVG Export Plug-In . SVG Version: 6.00 Build 0)  -->
<svg version="1.1" id="Calque_1" xmlns="http://www.w3.org/2000/svg" xmlns:xlink="http://www.w3.org/1999/xlink" x="0px" y="0px"
	 viewBox="0 116.283 800 567.433" style="enable-background:new 0 116.283 800 567.433;" xml:space="preserve">
<g>
	<circle fill="#fff" cx="221.117" cy="337.625" r="58.367"/>
	<path fill="#fff" d="M129.392,498.608v79.3h183.442v-79.3c0-41.442-33.883-75.325-75.333-75.325h-32.775
		C163.292,423.283,129.392,457.167,129.392,498.608z"/>
	<rect fill="#fff" x="415.675" y="372.925" width="254.933" height="49.917"/>
	<rect fill="#fff" x="415.675" y="488.125" width="254.933" height="49.933"/>
	<rect fill="#fff" x="351.717" y="116.283" width="78.833" height="133.417"/>
	<path fill="#fff" d="M724.658,150.383H451.775v51.4h291v430.533H57.217V201.783H330.5v-51.4H75.333C33.892,150.383,0,184.283,0,225.708v382.667
		c0,41.442,33.892,75.342,75.333,75.342h649.325c41.442,0,75.342-33.9,75.342-75.342V225.708
		C800,184.283,766.1,150.383,724.658,150.383z"/>
</g>
</svg>
