<?xml version="1.0" encoding="utf-8"?>
<!-- Generator: Adobe Illustrator 16.0.3, SVG Export Plug-In . SVG Version: 6.00 Build 0)  -->
<!DOCTYPE svg PUBLIC "-//W3C//DTD SVG 1.1//EN" "http://www.w3.org/Graphics/SVG/1.1/DTD/svg11.dtd">
<svg version="1.1" id="Calque_1" xmlns="http://www.w3.org/2000/svg" xmlns:xlink="http://www.w3.org/1999/xlink" x="0px" y="0px"
	 width="617.95px" height="617.95px" viewBox="0 0 617.95 617.95" enable-background="new 0 0 617.95 617.95" xml:space="preserve">
<g>
	<path fill="#2E3A41" d="M74.347,579.903l4.4,4.401c-0.549-0.551-1.1-1.101-2.199-2.2C75.996,581.552,75.447,581.004,74.347,579.903
		"/>
	<path fill="#2E3A41" d="M209.681,430.265c77.567-40.159,228.856-141.935,308.074-337.784l32.458-32.458
		c4.4-4.402,4.952-12.652,0.552-17.053c-4.403-4.402-12.104-4.401-17.056,0.55l-31.357,31.358
		c-195.848,81.419-295.423,234.907-335.581,312.477l-0.552,0.551l-55.562,24.755l25.305,25.307l2.202,2.2
		c-19.805,13.204-61.615,62.715-61.615,62.715c-20.357,22.558-20.355,55.563-1.102,78.122c22.006,19.803,54.463,18.154,75.92-3.303
		l28.606-28.605c22.005-22.004,18.705-38.511-8.253-37.96c0,0-48.961,67.665-74.267,42.358
		c-20.905-20.905,50.613-63.816,66.566-87.471l25.306,25.306l21.455-58.864l1.651-2.751"/>
</g>
</svg>
