<?xml version="1.0" encoding="utf-8"?>
<!-- Generator: Adobe Illustrator 19.2.0, SVG Export Plug-In . SVG Version: 6.00 Build 0)  -->
<svg version="1.1" id="Calque_1" xmlns="http://www.w3.org/2000/svg" xmlns:xlink="http://www.w3.org/1999/xlink" x="0px" y="0px"
	 viewBox="0 0 266.8 318.9" style="enable-background:new 0 0 266.8 318.9;" xml:space="preserve">
<style type="text/css">
	.st0{fill:#2E3A41;}
</style>
<title>parent</title>
<path class="st0" d="M52.1,116.4c0,0,4.4-34.4-9.2-34H9.3C0.9,81.6,0.1,95.6,0.1,100c0,0-3.6,60.4,46.4,59.6c3.2,0,6-0.8,8.8-1.2
	c13.2-3.2,22.4-11.6,22.4-20.8C78.1,123.6,65.3,116.4,52.1,116.4z"/>
<circle class="st0" cx="24.5" cy="55.2" r="23.2"/>
<circle class="st0" cx="92.5" cy="31.6" r="31.6"/>
<path class="st0" d="M174.1,149.6c0,0-40.4-70.8-45.6-76.4c-3.6-4.8-10.8-5.2-13.6-5.2H71.3c-6.4,0-12.4,4-12.4,14l0.4,30.4
	c18.4,1.6,24.4,16.4,24.4,25.2c0,9.2-6.4,19.2-19.6,22.4c0,0,0.8,16.8,1.2,17.6c-0.8,0.8-14.8,126-14.8,126
	c-0.8,6.4,0.8,13.6,7.2,14.4l6.8,0.8c6.4,0.8,9.2-5.6,10-12l11.6-99.6c1.6,0.4,4.8,2,8.4,2c5.2,0,6.4-1.6,8.8-2.4l19.2,98.8
	c1.2,6.4,2.8,13.6,9.2,12.8l4.4-0.8c6.4-1.2,12.4-4.8,10.4-14c0,0-24-134-24.8-135.2l0.8-57.6l34.8,52.8c3.6,5.6,7.2,8.8,12.8,4.8
	l5.6-4C180.9,161.2,176.5,154.8,174.1,149.6z"/>
<circle class="st0" cx="221.7" cy="163.6" r="23.2"/>
<path class="st0" d="M264.1,226l-25.6-27.2c-2.8-3.6-5.2-6-10.8-6.4l-16-0.4l-26.4-22c-4.8-4.8-9.6-5.6-14.4-1.2s-3.2,8.8,1.6,13.6
	c0,0,30.8,28.8,33.2,29.2l-4,36c-3.2,2-10,22.8-10.8,28.4s-1.2,27.6-1.2,27.6c0,9.2,2.4,13.6,8.4,14.4c6,0,10.4,0.8,10-13.6
	c0,0-0.4-19.6,1.2-24s7.2-13.6,7.2-13.6s2.8,18,6,24.8s18.8,26,26.8,26.4c6.8,0.4,12-6.4,7.6-13.6c0,0-12.4-13.2-15.2-18
	c-5.6-10-3.2-25.6-2.8-34.8c0.8-12-3.6-22.8-4-29.6l18.4,18c4,4,8,2.8,12,0C264.9,239.6,269.7,232,264.1,226z"/>
</svg>
