<?xml version="1.0" encoding="utf-8"?>
<!-- Generator: Adobe Illustrator 16.0.3, SVG Export Plug-In . SVG Version: 6.00 Build 0)  -->
<!DOCTYPE svg PUBLIC "-//W3C//DTD SVG 1.1//EN" "http://www.w3.org/Graphics/SVG/1.1/DTD/svg11.dtd">
<svg version="1.1" id="Calque_1" xmlns="http://www.w3.org/2000/svg" xmlns:xlink="http://www.w3.org/1999/xlink" x="0px" y="0px"
	 width="666.142px" height="598.11px" viewBox="0 0 666.142 598.11" enable-background="new 0 0 666.142 598.11"
	 xml:space="preserve">
<g>
	<g>
		<path fill="#FFFFFF" d="M228.668,308.228c0.432-7.046,0.865-14.1,1.789-21.226c1.708-16.895,5.377-33.86,9.126-50.362
			c2.281-8.231,4.754-16.362,7.347-24.312c3.316-7.759,6.562-15.476,9.799-23.014c7.326-14.714,15.518-28.461,25.296-39.969
			c2.321-2.966,4.622-5.839,6.875-8.723c2.573-2.573,5.146-5.066,7.627-7.559c5.236-4.734,9.777-9.86,15.006-13.619
			c10.42-7.718,19.638-15.055,29.024-19.598c9.046-5.046,16.804-9.426,23.798-11.899c13.708-5.517,21.488-8.29,21.488-8.29
			s-6.635,5.266-18.23,13.809c-5.991,3.91-12.342,10.081-19.9,16.402c-7.88,6.03-15.014,14.672-23.497,22.956
			c-4.242,4.232-7.537,9.548-11.547,14.442c-1.95,2.493-3.95,5.005-6.013,7.559c-1.667,2.814-3.396,5.638-5.145,8.521
			c-7.487,11.097-13.084,24.121-18.917,37.337c-2.393,6.915-4.812,13.93-7.287,21.015c-1.688,7.366-3.556,14.812-5.596,22.23
			c-3.066,15.245-6.07,30.793-7.368,46.783c-0.904,5.799-1.336,11.647-1.88,17.536c127.045,0.021,225.375,0.102,362.964,0.102
			c0.461-6.031,0.723-12.142,0.723-18.281c0-115.877-84.444-211.314-193.104-223.958c7.015-6.562,11.458-15.869,11.458-26.222
			c0.039-19.898-16.08-35.999-35.939-35.999c-19.879,0-36.018,16.1-36.018,35.999c0,10.374,4.421,19.659,11.456,26.222
			C273.351,78.753,188.93,174.19,188.93,290.067c0,6.121,0.22,12.148,0.672,18.163C203.022,308.228,215.975,308.228,228.668,308.228
			z"/>
		<rect x="149.323" y="321.635" fill="#FFFFFF" width="514.487" height="45.386"/>
		<path fill="#FFFFFF" d="M452.594,399.241c-26.148,12.705-117.325,45.588-117.325,45.588l-107.777-6.754
			c0,0,61.648-17.145,85.547-22.511c23.94-5.349,13.527-32.343,0.291-32.343c-13.235,0-128.581,4.765-128.581,4.765l-76.591,27.578
			l20.27,128.301c0,0,15.77-26.997,31.499-26.997c15.788,0,152.541,3.639,171.103,0c18.574-3.68,131.698-81.063,145.246-90.092
			C489.762,417.795,478.845,386.52,452.594,399.241z"/>
		<polygon fill="#FFFFFF" points="5.163,429.354 5.163,595.664 122.509,573.694 93.152,413.872 		"/>
	</g>
</g>
<g>
	<g>
		<path fill="#FFFFFF" d="M226.397,309.013c0.435-7.086,0.87-14.181,1.8-21.349c1.718-16.993,5.408-34.056,9.179-50.653
			c2.294-8.279,4.781-16.457,7.39-24.453c3.335-7.804,6.6-15.565,9.855-23.147c7.368-14.799,15.607-28.626,25.442-40.2
			c2.335-2.983,4.649-5.873,6.914-8.773c2.588-2.588,5.176-5.095,7.672-7.603c5.266-4.761,9.833-9.917,15.093-13.697
			c10.48-7.762,19.751-15.142,29.192-19.711c9.099-5.076,16.901-9.481,23.936-11.968c13.787-5.549,21.611-8.338,21.611-8.338
			s-6.672,5.296-18.336,13.889c-6.025,3.933-12.413,10.139-20.015,16.497c-7.925,6.064-15.101,14.757-23.633,23.088
			c-4.267,4.256-7.58,9.603-11.614,14.526c-1.961,2.507-3.973,5.034-6.047,7.602c-1.677,2.831-3.416,5.67-5.174,8.571
			c-7.531,11.161-13.16,24.261-19.026,37.553c-2.406,6.955-4.839,14.01-7.329,21.136c-1.698,7.409-3.577,14.898-5.628,22.359
			c-3.084,15.333-6.105,30.972-7.41,47.053c-0.909,5.833-1.344,11.715-1.892,17.638c127.779,0.021,226.677,0.103,365.062,0.103
			c0.465-6.066,0.729-12.212,0.729-18.387c0-116.547-84.934-212.536-194.221-225.252c7.055-6.6,11.523-15.961,11.523-26.374
			c0.039-20.014-16.174-36.207-36.147-36.207c-19.992,0-36.227,16.193-36.227,36.207c0,10.433,4.447,19.772,11.523,26.374
			C271.338,78.211,186.43,174.201,186.43,290.748c0,6.156,0.221,12.219,0.676,18.268
			C200.604,309.013,213.631,309.013,226.397,309.013z"/>
		<rect x="146.594" y="322.497" fill="#FFFFFF" width="517.461" height="45.648"/>
		<path fill="#FFFFFF" d="M451.62,400.553c-26.301,12.778-118.004,45.852-118.004,45.852l-108.4-6.794
			c0,0,62.004-17.243,86.042-22.64c24.079-5.38,13.605-32.53,0.292-32.53c-13.312,0-129.324,4.792-129.324,4.792l-77.034,27.738
			l20.387,129.042c0,0,15.861-27.153,31.681-27.153c15.879,0,153.422,3.66,172.092,0c18.682-3.701,132.459-81.532,146.086-90.613
			C489.002,419.213,478.022,387.758,451.62,400.553z"/>
		<polygon fill="#FFFFFF" points="1.601,430.84 1.601,598.11 119.625,576.014 90.098,415.268 		"/>
	</g>
</g>
</svg>
