<?xml version="1.0" encoding="iso-8859-1"?>
<!-- Generator: Adobe Illustrator 19.2.0, SVG Export Plug-In . SVG Version: 6.00 Build 0)  -->
<svg version="1.1" id="Calque_1" xmlns="http://www.w3.org/2000/svg" xmlns:xlink="http://www.w3.org/1999/xlink" x="0px" y="0px"
	 viewBox="0 126.802 558.075 591.783" style="enable-background:new 0 126.802 558.075 591.783;" xml:space="preserve">
<path style="fill:#2e3a41;" d="M211.622,126.802c-8.073,0-13.133,3.832-17.449,8.148s-8.148,10.529-8.148,18.602v44.2H74.41
	c-40.925,0-74.41,33.485-74.41,74.41h558.075c0-40.926-33.484-74.41-74.41-74.41H368.553v-44.2c0-8.073-3.832-14.287-8.148-18.603
	c-4.316-4.316-10.529-8.148-18.603-8.148H211.585H211.622z M223.267,164.007h108.118v33.708H223.267V164.007z M74.447,309.33
	v390.652c0,11.162,7.441,18.603,18.603,18.603H465.1c11.162,0,18.603-7.441,18.603-18.603V309.33h-74.41v316.243
	c0,11.161-7.441,18.602-18.603,18.602c-11.161,0-18.602-7.441-18.602-18.602V309.33h-74.41v316.243
	c0,11.161-7.441,18.602-18.603,18.602s-18.603-7.441-18.603-18.602V309.33h-74.41v316.243c0,11.161-7.441,18.602-18.602,18.602
	c-11.162,0-18.603-7.441-18.603-18.602V309.33H74.447z"/>
</svg>
