<?xml version="1.0" encoding="utf-8"?>
<!-- Generator: Adobe Illustrator 19.2.0, SVG Export Plug-In . SVG Version: 6.00 Build 0)  -->
<svg version="1.1" id="Calque_1" xmlns="http://www.w3.org/2000/svg" xmlns:xlink="http://www.w3.org/1999/xlink" x="0px" y="0px"
	 viewBox="0 0 251.6 360" style="enable-background:new 0 0 251.6 360;" xml:space="preserve">
<style type="text/css">
	.st0{fill:#2E3A41;}
</style>
<title>reponsable_associatif</title>
<path class="st0" d="M124.7,0c-11.1,0.7-19.6,10.2-18.9,21.3c0.4,6.6,4.1,12.6,9.8,16h0.1c9.8,5.2,22,1.4,27.1-8.4
	c4.8-9.2,1.9-20.5-6.8-26.2C132.6,0.7,128.7-0.2,124.7,0z M151.8,27.4c-0.8,2.7-2,5.2-3.5,7.5l59.4,34.3c1.3-2.4,3-4.7,5-6.6
	L151.8,27.4z M99.7,27.5L39.1,62.4c1.7,1.7,3.2,3.7,4.4,5.8c0.2,0.3,0.4,0.7,0.6,1L103.2,35c-1.4-2.1-2.5-4.3-3.3-6.8
	C99.8,28,99.8,27.8,99.7,27.5L99.7,27.5z M121.6,46.8l-0.4,68.2c1.3-0.2,2.6-0.3,3.9-0.3c1.8-0.1,3.6,0.1,5.4,0.4L130.1,47
	C127.2,47.4,124.4,47.3,121.6,46.8L121.6,46.8z M18.8,61.7c-6.6,0.4-12.6,4-16,9.8c-5.7,9.5-2.5,21.8,7,27.5h0.1
	c9.5,5.6,21.8,2.3,27.3-7.2s2.3-21.8-7.2-27.3C26.7,62.4,22.7,61.4,18.8,61.7z M230.4,61.7c-11,0.6-19.5,10-18.9,21
	c0.4,6.7,4.1,12.8,9.9,16.2h0.1c9.5,5.6,21.8,2.3,27.3-7.2s2.3-21.8-7.2-27.3C238.3,62.4,234.4,61.4,230.4,61.7L230.4,61.7z
	 M45.4,90.5c-1,2.7-2.3,5.2-4,7.5l59.1,34.5c1.1-2.8,2.7-5.5,4.6-7.9L45.4,90.5z M206,90.7l-59.5,33.9c1,1.2,1.9,2.5,2.8,3.9
	c0.8,1.3,1.5,2.6,2,4L210,98.2V98c-0.2-0.3-0.4-0.5-0.6-0.8c0,0,0-0.1,0-0.1c-0.2-0.2-0.3-0.4-0.5-0.6s-0.4-0.5-0.5-0.8
	s-0.1-0.2-0.1-0.3s-0.1-0.1-0.1-0.1c-0.4-0.6-0.7-1.1-1-1.8c-0.2-0.3-0.2-0.7-0.4-1C206.5,92,206.3,91.3,206,90.7L206,90.7z
	 M13.7,107.9v67.6c1.8-0.4,3.6-0.6,5.4-0.6c0.3,0,0.7,0,1,0c0.6,0,1.2-0.1,1.9,0v-66.1C19.2,108.9,16.4,108.6,13.7,107.9z
	 M237.9,108.2c-2.7,0.6-5.5,0.8-8.3,0.5v66.3h0.5c0.3,0,0.7-0.1,1-0.1c2.3,0,4.6,0.3,6.8,0.9V108.2L237.9,108.2z M124.7,121.8
	c-11.1,0.7-19.6,10.2-18.9,21.3c0.4,6.6,4.1,12.6,9.8,16h0.1c9.6,5.5,21.9,2.2,27.4-7.5c5.4-9.5,2.3-21.5-7-27.2
	C132.6,122.5,128.7,121.5,124.7,121.8z M151.1,151.2c-1.1,2.9-2.6,5.6-4.5,8l59.5,34c1-2.7,2.4-5.2,4.1-7.5L151.1,151.2z
	 M100.4,151.3l-58.9,34.2c0.6,0.8,1.1,1.6,1.6,2.5c1,1.6,1.9,3.2,2.5,5l59.3-33.9C103,156.9,101.4,154.2,100.4,151.3L100.4,151.3z
	 M108.7,169.4c-15,0-27.3,7-27.3,15.8v71.4c0,3.9,3.2,7.1,7.1,7.1c0,0,0,0,0,0h2.8c3.9,0,7.1-3.2,7.1-7.1c0,0,0,0,0,0V200
	c0.9,0.2,1.8-0.2,2.8,0v150.8c0,5.1,4.1,9.2,9.1,9.3c0,0,0.1,0,0.1,0h4.5c5.1,0,9.3-4.1,9.4-9.2c0,0,0,0,0,0v-89.6h3v89.6
	c0,5.1,4.2,9.3,9.3,9.3c0,0,0,0,0,0h4.5c5.1,0,9.2-4.1,9.3-9.1c0,0,0-0.1,0-0.1V200c1-0.2,1.8,0.2,2.8,0v56.5c0,3.9,3.2,7.1,7.1,7.1
	c0,0,0,0,0,0h2.8c3.9,0,7.1-3.2,7.1-7.1c0,0,0,0,0,0v-71.4c0-8.7-12.2-15.8-27.3-15.8L108.7,169.4L108.7,169.4z M18.8,181.9
	c-11.1,0.7-19.4,10.3-18.7,21.3c0.4,6.6,4.1,12.5,9.7,15.9l0.1,0.1c9.7,5.4,21.9,1.8,27.3-7.9c5.2-9.4,2.1-21.1-7-26.7
	C26.8,182.6,22.8,181.7,18.8,181.9L18.8,181.9z M230.4,181.9c-6.7,0.4-12.7,4.1-16.1,9.9c-5.6,9.5-2.4,21.8,7.1,27.4c0,0,0,0,0,0
	l0.1,0.1c9.6,5.5,21.9,2.2,27.4-7.4c5.5-9.6,2.2-21.9-7.4-27.4C238.2,182.6,234.3,181.7,230.4,181.9L230.4,181.9z M43.9,214.5
	c-1.3,2.4-2.9,4.7-4.9,6.6l35.3,20.4c-0.1-3.2-0.1-6.4-0.1-9.6L43.9,214.5z M207.6,214.5L177.3,232c0,3.1,0.1,6.4,0.1,9.5l35.1-20.4
	C210.6,219.2,208.9,217,207.6,214.5z"/>
</svg>
