<?xml version="1.0" encoding="utf-8"?>
<!-- Generator: Adobe Illustrator 19.2.0, SVG Export Plug-In . SVG Version: 6.00 Build 0)  -->
<svg version="1.1" id="Calque_1" xmlns="http://www.w3.org/2000/svg" xmlns:xlink="http://www.w3.org/1999/xlink" x="0px" y="0px"
	 viewBox="0 0 159.9 184.1" style="enable-background:new 0 0 159.9 184.1;" xml:space="preserve">
<style type="text/css">
	.st0{fill:none;}
	.st1{fill:#2E3A41;}
</style>
<title>senior</title>
<path class="st0" d="M113.3,136.5c-0.2-5,0.2-10.1-0.7-15c-2-11.2-13.4-19.6-23.6-18.1c-3.1,0.8-6.1,1.9-9.1,3.2
	c-2.9-1.3-6-2.4-9.1-3.2c-10.2-1.5-21.6,7-23.6,18.1c-0.9,4.9-0.5,10-0.7,15h0.1c-0.2,1.6-0.3,3.1-0.1,4.7c0.4,1.9,0.8,4.7,2.2,5.4
	c2.3,1.4,5.3,0.7,6.8-1.6c0,0,0,0,0,0c1.3-1.6,2.8-3,4.5-4.1c1,0.3,2,0.4,3,0.3c6.3-0.8,10.5-4.6,13.8-9.5c1.2-2,2.3-4,3.3-6.1
	c0.9,2.1,2,4.1,3.3,6.1c3.3,4.9,7.5,8.7,13.8,9.5c1,0.1,2,0,3-0.3c1.7,1.1,3.2,2.5,4.5,4.1c1.4,2.3,4.4,3.1,6.8,1.7c0,0,0,0,0,0
	c1.3-0.7,1.8-3.5,2.2-5.4C113.6,139.7,113.6,138.1,113.3,136.5L113.3,136.5L113.3,136.5z"/>
<circle class="st1" cx="79.9" cy="176.6" r="5.8"/>
<path class="st1" d="M80,0C35.8,0,0,35.8,0,80s35.8,80,80,80s80-35.8,80-80S124.2,0,80,0z M113.4,141.2c-0.4,1.9-0.8,4.7-2.2,5.4
	c-2.3,1.4-5.3,0.7-6.8-1.6c0,0,0,0,0,0c-1.3-1.6-2.8-3-4.5-4.1c-1,0.3-2,0.4-3,0.3c-6.3-0.8-10.5-4.6-13.8-9.5c-1.2-2-2.3-4-3.3-6.1
	c-0.9,2.1-2,4.1-3.3,6.1c-3.3,4.9-7.5,8.7-13.8,9.5c-1,0.1-2,0-3-0.3c-1.7,1.1-3.2,2.5-4.5,4.1c-1.4,2.3-4.4,3.1-6.8,1.7
	c0,0,0,0,0,0c-1.3-0.7-1.8-3.5-2.2-5.4c-0.1-1.6-0.1-3.1,0.1-4.7h-0.1c0.2-5-0.2-10.1,0.7-15c2-11.2,13.4-19.6,23.6-18.1
	c3.1,0.8,6.2,1.9,9.1,3.2c2.9-1.3,6-2.4,9.1-3.2c10.2-1.5,21.6,7,23.6,18.1c0.9,4.9,0.5,10,0.7,15h-0.1
	C113.5,138.1,113.5,139.7,113.4,141.2L113.4,141.2z"/>
<path class="st1" d="M97.5,169.4l-9.4,3.2c-0.9,0.3-1.5,1.6-1.5,3v1.9c0,1.4,0.6,2.7,1.5,3l9.4,3.2c3.8,1.3,8-0.5,8-4.4v-5.4
	C105.5,169.9,101.3,168.1,97.5,169.4z"/>
<path class="st1" d="M71.8,172.6l-9.4-3.2c-3.8-1.3-8,0.5-8,4.4v5.4c0,4,4.2,5.8,8,4.4l9.4-3.2c0.9-0.3,1.5-1.6,1.5-3v-1.9
	C73.3,174.3,72.7,172.9,71.8,172.6z"/>
</svg>
