<?xml version="1.0" encoding="utf-8"?>
<!-- Generator: Adobe Illustrator 19.2.0, SVG Export Plug-In . SVG Version: 6.00 Build 0)  -->
<svg version="1.1" id="Calque_1" xmlns="http://www.w3.org/2000/svg" xmlns:xlink="http://www.w3.org/1999/xlink" x="0px" y="0px"
	 viewBox="0 0 398 300" style="enable-background:new 0 0 398 300;" xml:space="preserve">
<style type="text/css">
	.st0{fill:#2E3A41;}
</style>
<title>touriste</title>
<path class="st0" d="M393.6,115c-0.9-5.9-2.3-13.8-4.3-22.2c-2.6-11.1-5.6-9-14.9-14.6c1.1-4.6,2-8,2.5-10.6
	c1.1-5.8-0.1-6.3-5.1-10.1c-11-8.3-30.4-11.5-45.9-12.9c-4.7-0.4-7.2,1-10.3,3.5c-1.6-2-3.3-4-5.1-5.8c-3.5-3.8-6.2-14.3-8.7-18.3
	c-4-6.5-12.2-12.3-19-15.7c-1.7-1-3.7-1.5-5.7-1.4c-0.1-2.9,0.1-6.4-2.3-6.5c-7.1-0.5-22.2-0.2-31.7-0.3c-10.1,0-15.8-0.1-26,0.1
	c-4.3,0.1-4.9,1.6-5.3,6.1c-7.8,2.6-19.5,7.5-25.5,17.9c-4,6.9-6.6,12.7-10.6,19c-7.8,12.4-37.7,17.8-90.8,21
	C76.3,61,65.3,63.4,47.8,67C25.3,71.8,6.2,86,4.2,108.9c-5,56.8-5.5,113.9-1.5,170.8c1.1,15.2,9.3,19.7,32.3,19.9l40.6,0.4
	c5.7,0.1,7.3-1.7,10.9-2.5l269.2-0.1c23,0,41.4-18.8,41.8-41.8C398.4,201.3,398.6,149.1,393.6,115z M61.5,88
	c-7.6,0.6-13.8-2.8-13.8-7.5s6.2-8.9,13.8-9.5s13.8,2.8,13.8,7.5S69.1,87.4,61.5,88L61.5,88z M95.8,279c-0.1,1.6-1.5,2.8-3.1,2.7
	c-1.5-0.1-2.7-1.3-2.7-2.7V130.7c0.1-1.6,1.5-2.8,3.1-2.7c1.5,0.1,2.7,1.3,2.7,2.7V279L95.8,279z M241.1,294.7
	c-59.4,0-107.5-48.1-107.5-107.5c0-59.4,48.1-107.5,107.5-107.5c59.3,0,107.5,48.1,107.5,107.4C348.6,246.5,300.4,294.6,241.1,294.7
	L241.1,294.7z M352.8,210.7l-4.3-0.2c2.9-15.5,2.9-31.5,0-47l4.3,0.2C368.2,180,367.6,195.6,352.8,210.7L352.8,210.7z"/>
<path class="st0" d="M241.1,96.9c-49.8,0-90.2,40.4-90.2,90.2s40.4,90.2,90.2,90.2s90.2-40.4,90.2-90.2l0,0
	C331.3,137.3,290.9,96.9,241.1,96.9z M241.1,238.7c-28.5,0-51.6-23.1-51.6-51.6c0-28.5,23.1-51.6,51.6-51.6
	c28.5,0,51.6,23.1,51.6,51.6S269.6,238.7,241.1,238.7L241.1,238.7z"/>
</svg>
